<?xml version="1.0" standalone="no"?>
<!DOCTYPE svg PUBLIC "-//W3C//DTD SVG 20010904//EN"
 "http://www.w3.org/TR/2001/REC-SVG-20010904/DTD/svg10.dtd">
<svg version="1.0" xmlns="http://www.w3.org/2000/svg"
 width="800.000000pt" height="281.000000pt" viewBox="0 0 800.000000 281.000000"
 preserveAspectRatio="xMidYMid meet">

<g transform="translate(0.000000,281.000000) scale(0.100000,-0.100000)"
fill="#000000" stroke="none">
<path d="M30 1727 c0 -708 4 -1072 11 -1111 25 -136 106 -244 223 -301 97 -46
165 -55 453 -55 217 0 248 -2 296 -20 60 -22 119 -77 141 -131 33 -79 79 -80
116 -2 31 64 54 90 105 115 74 38 100 41 396 47 l295 6 76 38 c90 44 152 107
198 200 61 124 60 102 60 1235 l0 1032 -1185 0 -1185 0 0 -1053z m2348 -9 l-3
-1043 -26 -76 c-49 -145 -132 -236 -256 -282 -52 -19 -87 -22 -343 -27 -303
-7 -350 -14 -419 -62 -34 -24 -50 -48 -75 -110 -12 -30 -20 -38 -41 -38 -21 0
-29 8 -44 44 -27 63 -73 110 -133 137 -51 22 -66 24 -358 29 -333 7 -344 9
-442 71 -95 61 -159 167 -178 294 -6 43 -10 458 -10 1088 l0 1017 1165 0 1166
0 -3 -1042z"/>
<path d="M82 1673 l3 -1058 23 -57 c30 -74 80 -138 139 -177 87 -58 119 -63
443 -70 280 -6 298 -8 347 -30 55 -24 124 -92 156 -151 21 -39 26 -35 64 40
22 43 39 62 82 87 81 48 137 56 426 58 279 2 297 5 388 58 77 46 131 123 173
247 18 52 19 114 22 1083 l3 1027 -1136 0 -1135 0 2 -1057z m462 1002 c25 -19
12 -33 -14 -17 -21 13 -68 16 -95 6 -23 -9 -36 -49 -26 -77 5 -13 23 -30 40
-37 27 -11 36 -10 71 8 43 21 65 12 28 -12 -38 -23 -67 -28 -103 -16 -66 22
-86 90 -40 135 19 20 34 25 72 25 26 0 57 -7 67 -15z m230 -62 c25 -43 41 -80
35 -82 -6 -2 -17 6 -25 18 -12 17 -26 21 -68 21 -44 0 -56 -4 -69 -22 -8 -13
-18 -20 -22 -16 -10 9 77 158 91 158 7 0 33 -35 58 -77z m226 67 c0 -5 -18
-10 -40 -10 l-40 0 0 -70 c0 -40 -4 -70 -10 -70 -6 0 -10 30 -10 70 l0 70 -45
0 c-25 0 -45 5 -45 10 0 6 38 10 95 10 57 0 95 -4 95 -10z m204 -16 c85 -86
-62 -194 -151 -111 -33 30 -32 89 3 116 40 32 113 29 148 -5z m116 -44 l0 -70
65 0 c37 0 65 -4 65 -10 0 -6 -32 -10 -75 -10 l-75 0 0 80 c0 47 4 80 10 80 6
0 10 -30 10 -70z m210 -10 c0 -47 -4 -80 -10 -80 -6 0 -10 33 -10 80 0 47 4
80 10 80 6 0 10 -33 10 -80z m241 60 c20 -16 21 -19 7 -20 -9 0 -20 5 -23 10
-11 18 -84 11 -105 -10 -25 -25 -25 -51 -1 -81 23 -29 81 -31 111 -4 22 20 36
15 27 -9 -9 -23 -79 -39 -114 -25 -46 17 -63 39 -63 80 0 29 6 42 26 58 35 28
103 28 135 1z m231 -57 c25 -43 42 -80 36 -82 -5 -2 -16 6 -24 18 -22 31 -115
31 -136 0 -8 -12 -19 -20 -25 -18 -13 5 76 159 92 159 6 0 31 -35 57 -77z m96
-955 c-4 -815 -5 -824 -26 -878 -27 -69 -71 -123 -128 -156 -80 -47 -129 -54
-398 -54 l-250 0 -40 -45 -41 -45 -36 43 -37 42 -288 5 -289 5 -57 28 c-94 46
-149 124 -168 238 -6 40 -10 356 -10 846 l0 783 463 2 c254 2 653 4 886 6
l423 3 -4 -823z m-1841 690 c19 -18 23 -32 23 -80 l0 -59 -72 3 -73 3 2 54 c4
90 66 130 120 79z m2043 -152 c0 -84 -28 -126 -84 -126 -58 0 -86 38 -86 120
l0 50 85 0 85 0 0 -44z m-2020 -24 c0 -4 -9 -13 -20 -20 -29 -18 -28 -85 1
-106 12 -8 20 -19 18 -24 -5 -12 -131 58 -136 75 -2 6 24 27 59 47 65 37 78
42 78 28z m-17 -194 c12 -14 17 -37 17 -75 l0 -54 -72 3 -73 3 2 48 c3 57 16
85 46 97 29 11 58 3 80 -22z m2037 -38 c0 -40 -4 -70 -10 -70 -6 0 -10 27 -10
60 0 57 -1 60 -25 60 -22 0 -25 -4 -25 -35 0 -19 -4 -35 -10 -35 -5 0 -10 16
-10 35 0 32 -2 35 -30 35 l-30 0 0 -66 c0 -41 -4 -63 -10 -59 -5 3 -10 37 -10
76 l0 69 85 0 85 0 0 -70z m-2020 -150 c0 -6 -32 -10 -75 -10 -43 0 -75 4 -75
10 0 6 32 10 75 10 43 0 75 -4 75 -10z m-6 -72 c9 -12 16 -32 16 -44 0 -31
-20 -84 -32 -84 -6 0 -7 8 -3 18 17 42 17 88 0 102 -15 12 -19 12 -31 -5 -8
-10 -14 -32 -14 -48 0 -67 -47 -92 -70 -36 -10 23 -10 39 -1 70 6 21 17 39 22
39 7 0 8 -7 4 -17 -13 -33 -16 -78 -6 -92 14 -22 28 -5 35 45 3 26 11 53 17
60 17 21 46 17 63 -8z m1997 -147 c21 -21 29 -39 29 -64 0 -36 -32 -88 -46
-75 -4 5 0 16 9 26 21 23 22 61 1 90 -18 27 -69 30 -96 5 -22 -20 -24 -76 -3
-93 19 -16 20 -41 1 -34 -18 7 -36 49 -36 85 0 39 48 89 85 89 16 0 38 -12 56
-29z m-2062 -28 c9 -17 11 -17 40 0 40 23 40 5 1 -23 -22 -15 -30 -30 -30 -51
0 -26 3 -29 30 -29 17 0 30 -5 30 -10 0 -7 -27 -10 -72 -8 l-73 3 2 59 c1 36
7 63 15 67 21 14 46 10 57 -8z m71 -223 l0 -70 -69 0 c-54 0 -70 4 -75 16 -10
26 -7 114 4 114 6 0 10 -25 10 -55 0 -52 1 -55 25 -55 22 0 25 5 27 38 l1 37
4 -37 c4 -34 7 -38 34 -38 29 0 29 0 29 60 0 33 2 60 5 60 3 0 5 -31 5 -70z
m2020 62 c0 -4 -30 -24 -66 -43 l-66 -36 66 -37 c76 -43 81 -58 35 -111 l-32
-36 32 -32 c48 -50 37 -67 -12 -19 -37 36 -49 42 -85 42 -23 0 -42 5 -42 10 0
6 19 10 43 10 37 0 48 6 81 39 l38 39 -43 25 c-24 14 -61 33 -82 43 -20 10
-36 22 -34 27 3 10 136 84 155 86 6 0 12 -3 12 -7z m-2086 -195 c33 -18 61
-38 63 -43 1 -5 -29 -26 -68 -48 -41 -22 -70 -33 -67 -25 2 8 28 27 57 43 l53
29 -56 31 c-31 17 -56 34 -56 38 0 13 13 9 74 -25z m66 -162 c0 -12 -14 -15
-69 -15 -65 0 -90 8 -74 24 3 3 37 6 75 6 54 0 68 -3 68 -15z m1991 -34 c21
-22 29 -39 29 -66 0 -45 -45 -95 -85 -95 -40 0 -85 50 -85 95 0 27 8 44 29 66
38 38 74 38 112 0z m-1991 -28 c0 -4 -23 -31 -52 -60 l-52 -53 52 0 c29 0 52
-4 52 -10 0 -6 -30 -10 -70 -10 -38 0 -70 3 -70 7 0 4 23 31 52 60 l52 53 -57
0 c-36 0 -56 4 -52 10 7 11 145 14 145 3z m-64 -199 c35 -20 64 -40 64 -45 0
-5 -31 -25 -70 -44 -84 -42 -94 -30 -14 16 l57 32 -57 29 c-31 15 -56 33 -56
38 0 15 7 13 76 -26z m758 -304 c14 -5 26 -14 26 -20 0 -6 -7 -6 -20 2 -27 17
-74 0 -78 -29 -4 -27 30 -47 64 -39 23 6 34 26 14 26 -5 0 -10 5 -10 10 0 6 9
10 20 10 13 0 20 -7 20 -18 0 -28 -21 -42 -62 -42 -29 0 -41 6 -55 26 -19 30
-11 51 28 71 29 15 23 15 53 3z m346 -27 c0 20 5 37 10 37 6 0 10 -22 10 -50
0 -27 -3 -50 -7 -50 -4 0 -22 14 -40 32 l-33 32 0 -32 c0 -18 -4 -32 -10 -32
-5 0 -10 23 -10 52 l0 52 40 -39 40 -39 0 37z m160 27 c0 -5 -9 -10 -20 -10
-17 0 -20 -7 -20 -40 0 -22 -4 -40 -10 -40 -5 0 -10 18 -10 40 0 33 -3 40 -20
40 -11 0 -20 5 -20 10 0 6 23 10 50 10 28 0 50 -4 50 -10z m60 -40 c0 -27 -4
-50 -10 -50 -5 0 -10 23 -10 50 0 28 5 50 10 50 6 0 10 -22 10 -50z m143 16
c3 32 4 30 5 -15 l2 -55 -35 34 -35 34 0 -32 c0 -18 -4 -32 -10 -32 -5 0 -10
23 -10 52 l0 52 39 -38 40 -39 4 39z m148 -28 c10 -21 15 -38 10 -38 -5 0 -13
5 -16 10 -9 14 -58 13 -73 -2 -7 -7 -12 -9 -12 -5 0 10 29 68 43 85 12 15 15
12 48 -50z m-1167 5 c15 -25 24 -49 20 -52 -3 -3 -10 2 -15 12 -12 21 -65 23
-73 2 -3 -8 -10 -15 -16 -15 -6 0 1 22 17 50 15 27 31 50 35 50 3 0 18 -21 32
-47z m172 32 c4 -8 1 -22 -6 -29 -8 -11 -9 -20 0 -35 14 -27 -1 -27 -18 -1 -7
11 -23 20 -37 20 -18 0 -25 -5 -25 -20 0 -11 -4 -20 -10 -20 -5 0 -10 23 -10
50 l0 50 50 0 c36 0 52 -4 56 -15z m287 8 c-53 -5 -61 -32 -10 -35 l32 -1 -32
-4 c-49 -6 -44 -33 6 -33 22 0 43 -4 46 -10 4 -6 -15 -10 -49 -10 l-56 0 0 50
0 50 53 -2 c50 -1 50 -2 10 -5z"/>
<path d="M697 2631 c-23 -40 -23 -41 23 -41 43 0 44 5 8 53 -12 17 -14 16 -31
-12z"/>
<path d="M1070 2650 c-41 -41 -9 -104 53 -104 66 0 103 68 59 107 -26 24 -87
22 -112 -3z"/>
<path d="M1925 2630 c-20 -39 -20 -40 20 -40 19 0 35 2 35 5 0 9 -30 65 -35
65 -2 0 -11 -13 -20 -30z"/>
<path d="M360 2045 l0 -415 423 0 422 0 -2 412 -2 413 -420 3 -421 2 0 -415z
m828 -2 l2 -403 -410 0 -410 0 0 398 c0 219 3 402 7 405 4 4 187 6 407 5 l401
-3 3 -402z"/>
<path d="M825 2340 c-11 -67 -42 -142 -77 -191 -43 -60 -57 -102 -58 -178 0
-74 -7 -74 -26 1 l-12 53 -1 -71 c-1 -68 1 -75 40 -133 22 -33 41 -61 42 -61
1 0 2 26 2 58 1 74 30 135 96 199 56 54 94 125 104 193 l6 45 -19 -30 c-10
-16 -28 -38 -38 -47 -19 -17 -19 -15 -21 55 0 40 -8 90 -16 112 l-14 40 -8
-45z"/>
<path d="M692 2288 c8 -26 5 -50 -11 -112 -12 -44 -19 -81 -17 -83 8 -8 57 67
67 101 10 38 -6 91 -36 116 -11 9 -12 5 -3 -22z"/>
<path d="M476 2143 c20 -38 24 -59 22 -103 -2 -43 -6 -54 -18 -51 -45 11 -60
12 -60 4 0 -5 11 -15 23 -20 16 -7 32 -32 47 -70 27 -70 44 -86 113 -108 28
-10 72 -29 96 -43 l44 -25 -21 30 c-27 39 -46 54 -96 78 -46 22 -61 47 -70
118 -9 60 6 62 36 5 l23 -43 3 30 c7 52 -18 134 -50 171 -26 29 -94 74 -112
74 -3 0 6 -21 20 -47z"/>
<path d="M1060 2089 c-20 -24 -38 -33 -90 -44 -119 -25 -148 -42 -182 -109
l-20 -38 23 16 c13 9 37 16 53 16 l29 0 -41 -30 c-51 -36 -72 -76 -72 -131 l0
-43 29 46 c35 55 56 71 143 104 48 18 77 37 98 62 34 41 63 119 58 157 l-3 25
-25 -31z"/>
<path d="M1230 1500 l0 -959 25 24 c17 18 35 25 62 25 327 3 503 10 545 23 95
30 161 97 194 198 15 49 17 128 22 852 l4 797 -426 0 -426 0 0 -960z m830 705
c0 -144 -4 -245 -9 -245 -19 0 -69 72 -87 126 -20 60 -32 64 -48 17 -6 -18
-14 -35 -18 -39 -19 -18 -181 140 -208 201 -9 22 -25 46 -34 54 -9 7 -16 20
-16 27 0 29 -20 12 -76 -66 -32 -44 -67 -83 -77 -86 -9 -3 -35 -40 -56 -83
-41 -80 -106 -151 -140 -151 -10 0 -26 -10 -34 -22 -15 -21 -16 -2 -16 238 -1
143 2 264 6 267 3 4 188 7 410 7 l403 0 0 -245z m-405 60 c14 -13 25 -29 25
-35 0 -6 19 -32 43 -57 23 -24 53 -57 67 -71 14 -15 36 -35 50 -44 l25 -17
-30 12 c-36 15 -82 43 -113 71 l-24 21 -18 -22 c-22 -27 -48 -30 -56 -5 -18
56 -17 55 -45 30 -15 -13 -35 -28 -45 -34 -11 -6 -35 -40 -54 -77 -33 -62 -37
-66 -52 -51 -15 15 -18 15 -42 -11 -14 -15 -53 -40 -88 -56 -63 -29 -63 -29
-35 -4 15 14 37 25 48 25 29 0 99 76 138 148 29 57 153 199 174 201 4 1 19
-10 32 -24z m87 -203 c18 -26 51 -42 88 -42 l31 0 -38 -72 c-22 -42 -62 -97
-94 -128 -30 -30 -66 -71 -79 -90 -13 -19 -27 -37 -32 -40 -4 -3 -11 -16 -16
-29 -8 -22 -12 -19 -60 55 -29 43 -57 85 -62 92 -12 14 -30 16 -30 3 0 -18
-108 -147 -159 -189 l-51 -43 0 150 0 150 46 7 c26 4 55 15 66 26 13 13 30 18
53 17 22 -2 41 3 54 15 29 26 41 12 41 -52 l1 -57 15 40 c16 42 19 52 29 98 4
22 11 28 27 25 17 -2 25 -14 33 -48 l11 -45 8 50 c10 70 18 97 24 91 3 -3 12
0 20 7 13 10 15 9 9 -5 -3 -9 -9 -34 -12 -55 l-7 -38 26 44 c14 23 26 52 26
62 0 24 15 24 32 1z m220 -38 c7 -9 32 -37 56 -62 31 -35 42 -54 42 -79 l0
-32 -35 20 c-19 12 -44 32 -55 46 l-19 25 -52 -49 c-29 -26 -62 -59 -73 -71
-12 -13 -49 -37 -83 -53 -33 -16 -63 -34 -66 -41 -4 -10 -6 -10 -6 -1 -1 7 22
30 50 50 30 23 65 62 87 98 36 61 121 165 134 165 4 0 13 -7 20 -16z m-9 -206
c26 28 52 17 82 -33 l25 -44 0 -285 c0 -157 -4 -286 -8 -286 -5 0 -24 17 -44
38 -111 117 -138 151 -138 173 0 13 -5 31 -10 39 -9 13 -13 12 -28 -5 -17 -20
-19 -19 -114 82 -76 80 -98 110 -98 131 1 27 20 62 35 62 4 0 20 11 37 25 16
14 38 25 49 25 11 0 29 5 40 11 35 18 38 6 15 -73 -33 -113 -10 -87 59 67 15
33 36 71 48 83 l22 24 5 -27 c5 -27 5 -27 23 -7z m-468 -107 c3 -11 14 -23 25
-26 10 -3 47 -43 81 -88 l64 -82 -50 41 c-71 58 -77 61 -74 33 2 -13 0 -30 -5
-37 -4 -7 -5 -19 -2 -27 11 -29 -2 -15 -29 31 -29 49 -48 53 -53 11 -2 -15
-10 -40 -18 -55 -14 -26 -14 -26 -14 30 0 79 -5 88 -43 81 -18 -4 -47 -16 -66
-27 -50 -29 -29 -3 27 35 26 17 51 38 55 45 4 8 17 14 27 14 11 0 24 9 30 20
14 25 37 26 45 1z m-101 -193 c4 -46 11 -99 15 -118 l8 -35 12 28 c6 16 11 34
11 41 0 7 7 21 15 32 8 10 15 27 15 37 0 9 5 17 11 17 16 0 87 -79 109 -122
24 -45 45 -61 35 -27 -4 13 -17 48 -30 77 l-24 52 22 0 c12 0 33 -9 47 -20 14
-11 33 -20 43 -20 10 0 33 -15 52 -34 19 -19 43 -37 55 -41 24 -8 26 -28 4
-46 -9 -7 -30 -37 -46 -66 -16 -29 -34 -53 -38 -53 -5 0 -20 -19 -35 -43 -15
-24 -40 -50 -56 -59 -25 -15 -29 -15 -43 1 -9 10 -16 23 -16 29 0 20 -29 13
-44 -10 -8 -13 -20 -42 -27 -65 -7 -26 -40 -75 -85 -129 -41 -48 -74 -91 -74
-95 0 -4 -18 -22 -40 -39 l-40 -32 0 390 0 390 38 12 c20 7 41 16 47 21 5 5
19 9 31 9 19 0 22 -7 28 -82z m307 -35 c13 -16 12 -17 -3 -4 -10 7 -18 15 -18
17 0 8 8 3 21 -13z m79 -63 c0 -15 -5 -12 -26 11 -19 22 -19 22 4 10 12 -6 22
-16 22 -21z m80 -97 c1 -10 38 -45 86 -82 47 -35 83 -66 80 -68 -5 -5 -80 41
-115 71 -18 16 -25 18 -28 8 -6 -16 -47 -34 -87 -39 -16 -2 -44 -14 -63 -29
-18 -14 -33 -23 -33 -20 0 10 144 176 153 176 4 0 7 -8 7 -17z m118 -202 c16
-34 51 -59 40 -30 -22 59 -22 61 14 57 l33 -3 0 -155 c-1 -140 -3 -160 -24
-207 -12 -28 -33 -61 -46 -73 l-24 -23 -34 26 c-18 14 -48 47 -67 74 -18 26
-72 82 -118 123 -79 70 -142 148 -142 176 0 7 10 16 22 20 13 4 39 17 58 30
19 13 52 30 73 39 l38 16 15 -36 c8 -19 18 -35 22 -35 4 0 20 21 35 47 l28 46
30 -29 c16 -15 37 -44 47 -63z m-376 -110 c19 -34 56 -73 120 -124 91 -74 217
-188 188 -170 -8 5 -47 35 -86 66 -82 66 -180 121 -200 113 -8 -3 -14 -20 -14
-41 0 -29 5 -37 26 -45 14 -6 45 -24 70 -41 50 -34 55 -30 19 17 l-25 33 31
-11 c17 -6 51 -25 77 -44 26 -18 68 -46 94 -61 26 -15 48 -31 48 -34 0 -4 -24
-17 -52 -30 -51 -23 -66 -24 -333 -29 -154 -3 -288 -9 -298 -14 -17 -8 -18 -3
-15 69 l3 77 50 27 c28 15 69 39 92 54 51 33 53 33 53 5 0 -17 3 -19 12 -10 7
7 20 12 29 12 10 0 19 6 22 13 4 9 8 8 18 -3 24 -27 53 -47 77 -55 22 -6 22
-6 -3 19 -14 14 -25 36 -25 50 0 39 -10 56 -35 56 -12 0 -29 10 -38 23 -14 22
-14 22 -68 -35 -30 -31 -79 -73 -109 -93 -52 -35 -50 -33 37 52 50 50 108 115
127 146 48 74 70 76 108 8z"/>
<path d="M360 1220 c0 -351 1 -384 19 -430 27 -70 60 -111 123 -151 l52 -34
297 -5 c309 -5 310 -5 346 -50 10 -12 12 96 10 515 l-2 530 -422 3 -423 2 0
-380z m63 53 c-7 -2 -14 -21 -15 -41 l-1 -37 -4 35 c-3 19 -10 38 -16 42 -7 4
1 7 18 7 17 0 24 -3 18 -6z m50 0 c-13 -2 -23 -9 -23 -14 0 -5 10 -10 23 -10
l22 -2 -22 -4 c-27 -5 -31 -40 -5 -46 13 -3 12 -4 -3 -3 -16 1 -21 9 -23 44
-3 40 -2 42 25 41 24 -2 24 -2 6 -6z m44 0 c-4 -3 2 -17 14 -29 12 -13 19 -30
16 -38 -7 -19 -33 -21 -43 -4 -5 8 -2 9 9 5 26 -10 31 13 8 34 -19 18 -21 39
-4 39 4 0 3 -3 0 -7z m86 0 c-7 -2 -14 -21 -15 -41 l-1 -37 -4 35 c-3 19 -10
38 -16 42 -7 4 1 7 18 7 17 0 24 -3 18 -6z m24 -55 c-2 -13 -4 -3 -4 22 0 25
2 35 4 23 2 -13 2 -33 0 -45z m59 15 c11 -17 13 -16 24 9 16 34 30 27 29 -15
l-1 -32 -8 30 c-4 17 -8 25 -9 19 0 -5 -7 -19 -15 -29 -14 -19 -15 -19 -27 9
l-13 29 -14 -29 c-12 -26 -12 -26 -8 -4 3 14 6 34 6 45 1 18 2 18 13 3 7 -9
17 -25 23 -35z m96 35 c-32 -32 0 -78 42 -62 21 8 21 50 -1 64 -16 10 -16 10
2 8 14 -2 21 -12 23 -36 3 -26 -1 -34 -21 -43 -35 -16 -67 3 -67 40 0 29 7 41
24 41 6 0 5 -5 -2 -12z m151 -15 c3 26 4 24 5 -12 l2 -45 -29 28 -29 28 -5
-28 c-3 -20 -4 -15 -5 16 l-1 45 29 -32 29 -32 4 32z m34 -35 c-2 -13 -4 -3
-4 22 0 25 2 35 4 23 2 -13 2 -33 0 -45z m39 30 l16 -32 14 32 c7 18 15 32 18
32 5 0 -22 -70 -29 -78 -2 -2 -13 14 -25 37 -11 23 -18 41 -15 41 2 0 12 -14
21 -32z m114 -28 c4 0 13 11 20 25 17 31 30 23 29 -18 l-1 -32 -7 30 -8 30
-13 -28 -14 -28 -23 25 c-13 14 -23 33 -22 43 0 12 6 7 16 -14 9 -18 20 -33
23 -33z m-43 -12 c-3 -8 -6 -5 -6 6 -1 11 2 17 5 13 3 -3 4 -12 1 -19z m-303
-114 c33 -32 13 -74 -36 -74 -27 0 -28 2 -28 45 0 41 2 45 24 45 14 0 32 -7
40 -16z m64 9 c-34 -5 -38 -32 -5 -34 l22 -2 -22 -4 c-32 -6 -29 -31 5 -36 25
-4 25 -4 -5 -6 -33 -1 -33 0 -33 44 0 44 0 45 33 44 30 -2 30 -2 5 -6z m-235
-255 c8 -5 6 -8 -5 -8 -15 0 -18 8 -16 48 1 47 1 47 5 7 3 -22 10 -43 16 -47z
m33 50 l17 -33 14 33 c7 17 15 32 18 32 5 0 -22 -70 -30 -78 -2 -2 -13 14 -25
37 -11 23 -18 41 -15 41 2 0 12 -15 21 -32z m124 -23 c6 4 7 -1 3 -11 -5 -14
-8 -13 -24 7 l-18 24 -11 -25 -11 -25 6 25 c2 14 5 34 5 45 0 16 4 13 20 -13
11 -18 25 -30 30 -27z m67 -7 c-2 -13 -4 -3 -4 22 0 25 2 35 4 23 2 -13 2 -33
0 -45z m93 20 l0 -42 -29 28 -29 28 -5 -28 c-3 -24 -4 -22 -6 10 l-1 40 30
-29 30 -29 0 32 c0 18 2 32 5 32 3 0 5 -19 5 -42z m53 35 c-13 -2 -23 -9 -23
-14 0 -5 10 -10 23 -10 l22 -2 -22 -4 c-14 -3 -23 -12 -23 -23 0 -11 9 -20 23
-23 19 -4 18 -4 -5 -6 -27 -1 -28 1 -28 44 0 43 1 45 28 44 23 -2 24 -2 5 -6z
m-174 -46 c-2 -31 -2 -31 -6 -4 -2 15 -9 25 -14 22 -5 -3 -6 1 -3 9 10 25 24
8 23 -27z"/>
<path d="M720 1065 c0 -30 3 -35 24 -35 16 0 27 7 31 20 8 25 -10 50 -36 50
-15 0 -19 -7 -19 -35z"/>
<path d="M176 2334 c-18 -18 -29 -54 -24 -81 3 -15 13 -18 58 -18 l55 0 -1 44
c-1 63 -50 94 -88 55z"/>
<path d="M2157 2214 c-22 -23 1 -109 33 -119 53 -17 96 27 88 91 -3 28 -6 29
-58 32 -31 2 -59 0 -63 -4z"/>
<path d="M195 2118 c-30 -16 -30 -17 -9 -33 30 -23 44 -18 44 15 0 33 -5 35
-35 18z"/>
<path d="M166 1958 c-9 -12 -16 -37 -16 -55 l0 -33 61 0 62 0 -6 40 c-3 23
-11 47 -17 55 -19 23 -66 19 -84 -7z"/>
<path d="M156 1525 c-3 -9 -6 -32 -6 -51 0 -30 3 -34 26 -34 24 0 25 2 22 47
-2 35 -8 49 -19 51 -9 2 -19 -4 -23 -13z"/>
<path d="M2200 992 c-49 -15 -68 -83 -32 -115 27 -25 78 -22 96 5 37 53 -6
128 -64 110z"/>
<path d="M1785 430 c-8 -13 -1 -24 14 -19 6 3 7 10 2 18 -6 10 -10 10 -16 1z"/>
<path d="M616 415 c-4 -10 1 -15 14 -15 13 0 18 5 14 15 -4 8 -10 15 -14 15
-4 0 -10 -7 -14 -15z"/>
<path d="M750 436 c0 -12 10 -16 36 -16 45 0 42 24 -4 28 -24 2 -32 -1 -32
-12z"/>
<path d="M3844 2126 c-9 -24 0 -58 19 -70 27 -17 52 4 52 45 0 31 -3 34 -33
37 -21 2 -34 -2 -38 -12z"/>
<path d="M5510 2121 c-15 -30 4 -71 33 -71 29 0 47 17 47 45 0 44 -60 63 -80
26z"/>
<path d="M5890 2125 c0 -8 9 -15 19 -15 35 0 51 -38 51 -118 l0 -74 -35 31
c-29 25 -44 31 -83 31 -97 0 -142 -56 -150 -183 -6 -100 10 -158 55 -197 29
-26 42 -30 89 -30 50 0 59 3 90 34 27 27 34 30 34 16 0 -43 10 -50 71 -50 52
0 59 2 59 19 0 14 -8 21 -27 23 l-28 3 -3 263 -2 262 -70 0 c-56 0 -70 -3 -70
-15z m33 -224 c30 -37 42 -115 27 -190 -12 -64 -21 -76 -64 -91 -68 -22 -113
20 -123 113 -7 73 4 140 28 171 16 21 29 26 64 26 36 0 48 -5 68 -29z"/>
<path d="M6730 2125 c0 -8 9 -15 19 -15 39 0 51 -26 51 -113 -1 -61 -3 -77
-11 -64 -29 49 -133 63 -190 24 -62 -41 -87 -173 -54 -283 20 -68 52 -96 115
-102 61 -6 106 11 124 47 l14 26 7 -38 7 -38 62 3 c46 2 61 7 61 18 0 8 -9 16
-20 18 -44 9 -45 12 -45 278 l0 254 -70 0 c-56 0 -70 -3 -70 -15z m29 -214
c46 -46 54 -206 14 -259 -41 -55 -123 -48 -153 13 -21 43 -19 180 3 222 19 36
28 41 80 42 24 1 44 -6 56 -18z"/>
<path d="M2790 2098 c0 -7 15 -20 33 -28 l32 -15 5 -197 c5 -179 7 -199 26
-225 32 -44 79 -63 159 -63 83 0 129 20 162 69 22 32 23 43 23 217 0 171 1
185 20 204 11 11 27 20 35 20 8 0 15 7 15 15 0 12 -17 15 -90 15 -73 0 -90 -3
-90 -15 0 -8 7 -15 15 -15 8 0 24 -9 35 -20 18 -18 20 -33 20 -185 0 -193 -9
-227 -64 -250 -44 -19 -87 -19 -129 -2 -54 23 -58 41 -55 252 l3 190 33 10
c59 17 28 30 -81 33 -82 2 -107 0 -107 -10z"/>
<path d="M3324 1971 c-11 -11 -2 -31 15 -31 37 0 42 -22 39 -176 l-3 -149 -27
-3 c-20 -2 -28 -9 -28 -23 0 -18 6 -20 98 -17 78 2 97 6 97 18 0 8 -10 16 -23
18 -36 5 -44 35 -40 153 4 134 19 162 90 167 35 2 48 -2 64 -19 17 -19 19 -39
22 -180 l3 -159 65 0 c56 0 65 2 62 17 -2 9 -14 20 -28 23 -25 6 -25 7 -30
145 -7 190 -28 225 -135 225 -35 0 -52 -6 -79 -30 l-34 -31 -6 28 c-6 27 -9
28 -62 28 -31 0 -57 -2 -60 -4z"/>
<path d="M3783 1968 c-7 -13 7 -28 27 -28 32 0 40 -33 40 -167 0 -138 -7 -163
-48 -166 -14 -1 -22 -8 -22 -19 0 -16 11 -18 105 -18 88 0 105 3 105 15 0 9
-8 18 -17 21 -48 15 -48 13 -53 194 l-5 172 -63 2 c-35 0 -66 -2 -69 -6z"/>
<path d="M3984 1971 c-12 -12 -1 -30 18 -33 20 -3 32 -28 89 -183 66 -177 67
-180 98 -183 36 -4 35 -7 119 213 49 129 60 150 80 153 15 2 22 9 20 19 -5 23
-152 22 -156 -1 -2 -10 4 -16 17 -16 11 0 24 -8 30 -17 9 -16 -3 -53 -81 -266
-10 -27 -14 -19 -58 110 -49 144 -51 173 -9 173 13 0 19 6 17 16 -2 13 -20 16
-91 17 -49 1 -91 0 -93 -2z"/>
<path d="M4520 1962 c-51 -27 -82 -93 -83 -179 -1 -86 14 -131 59 -174 34 -33
38 -34 114 -34 69 0 81 3 104 24 14 14 26 33 26 43 0 23 -5 23 -38 -1 -90 -63
-192 -11 -192 99 l0 30 126 0 127 0 -6 51 c-13 106 -65 159 -157 159 -25 0
-61 -8 -80 -18z m120 -32 c20 -10 40 -59 40 -96 0 -23 -2 -24 -85 -24 -95 0
-100 5 -71 74 21 51 70 71 116 46z"/>
<path d="M4804 1971 c-11 -11 -2 -31 15 -31 37 0 42 -22 39 -176 l-3 -148 -25
-6 c-14 -3 -26 -14 -28 -23 -3 -16 6 -17 105 -15 84 2 108 6 108 17 0 8 -13
15 -30 17 -50 5 -58 26 -52 141 6 123 26 176 70 181 22 3 30 -2 40 -26 11 -26
15 -28 37 -20 71 26 40 98 -43 98 -46 0 -64 -10 -90 -49 -17 -25 -22 -21 -29
23 -2 15 -13 19 -56 20 -30 0 -56 -1 -58 -3z"/>
<path d="M5220 1973 c-8 -3 -27 -17 -42 -31 -22 -20 -28 -35 -28 -69 0 -54 24
-80 110 -122 80 -39 90 -48 90 -80 0 -32 -8 -44 -37 -60 -53 -27 -123 8 -123
64 0 30 -11 32 -33 7 -23 -25 -21 -58 3 -82 26 -26 59 -33 132 -28 53 4 65 9
89 36 23 26 29 42 29 78 0 56 -25 84 -112 123 -35 15 -69 35 -76 44 -22 26
-11 70 22 86 42 20 78 5 91 -37 11 -37 38 -43 55 -12 26 49 -25 91 -107 89
-26 0 -55 -3 -63 -6z"/>
<path d="M5454 1971 c-12 -13 0 -29 25 -34 37 -8 41 -24 41 -164 0 -132 -8
-160 -47 -165 -17 -2 -28 -9 -28 -18 0 -12 18 -15 105 -15 86 0 105 3 105 15
0 9 -12 17 -30 20 l-30 5 -5 179 -5 178 -63 2 c-35 0 -66 -1 -68 -3z"/>
<path d="M6210 1973 c-54 -20 -70 -86 -24 -103 34 -13 34 -13 34 14 0 35 26
56 69 56 48 0 63 -17 69 -79 l4 -48 -73 -7 c-132 -13 -184 -65 -158 -159 14
-52 51 -77 111 -77 44 0 54 4 85 35 34 34 38 33 45 -10 3 -17 11 -20 52 -20
56 0 73 19 32 35 l-26 10 0 132 c0 193 -23 228 -145 227 -33 0 -67 -3 -75 -6z
m148 -250 c-4 -48 -10 -61 -37 -85 -59 -53 -121 -29 -121 47 0 52 24 76 83 86
84 13 80 15 75 -48z"/>
<path d="M3987 1400 c-32 -53 -34 -60 -17 -60 19 0 130 95 130 111 0 5 -17 9
-39 9 -37 0 -41 -3 -74 -60z"/>
<path d="M4170 1435 c0 -8 9 -15 19 -15 11 0 27 -7 35 -16 14 -14 16 -46 14
-242 l-3 -227 -32 -14 c-18 -8 -33 -21 -33 -28 0 -10 42 -13 205 -13 163 0
205 3 205 13 0 7 -15 20 -32 28 l-33 14 -3 173 -2 172 -65 0 c-51 0 -65 -3
-65 -15 0 -8 8 -15 18 -15 37 0 42 -19 42 -164 0 -78 -5 -148 -10 -156 -12
-19 -82 -19 -104 -1 -14 12 -16 45 -16 267 l0 254 -70 0 c-56 0 -70 -3 -70
-15z"/>
<path d="M4442 1438 c-7 -7 -12 -21 -12 -33 0 -47 62 -63 81 -21 22 47 -33 90
-69 54z"/>
<path d="M5662 1438 c3 -7 14 -14 26 -16 33 -5 39 -21 44 -110 l5 -83 -29 28
c-26 25 -37 28 -93 28 -57 0 -67 -3 -94 -29 -40 -39 -54 -82 -53 -176 1 -141
45 -200 153 -200 46 0 55 4 85 35 l33 35 3 -32 3 -33 63 -3 c50 -2 62 0 62 12
0 9 -11 18 -25 22 -14 3 -30 14 -35 24 -6 11 -10 124 -10 264 l0 246 -71 0
c-52 0 -70 -3 -67 -12z m42 -231 c28 -37 35 -175 13 -229 -30 -72 -133 -73
-163 -2 -17 40 -18 161 -3 201 19 51 39 64 87 61 36 -2 49 -9 66 -31z"/>
<path d="M2960 1419 c-63 -12 -119 -55 -149 -114 -21 -39 -27 -67 -29 -137 -6
-138 32 -224 119 -268 46 -24 153 -27 204 -6 39 17 68 56 59 80 -6 16 -8 16
-28 -2 -35 -32 -67 -44 -117 -44 -62 0 -104 26 -132 82 -19 38 -22 61 -22 150
0 89 4 111 23 147 26 49 70 76 125 76 45 0 87 -34 87 -70 0 -29 30 -31 55 -3
15 16 17 26 9 47 -18 52 -110 80 -204 62z"/>
<path d="M6590 1419 c-63 -12 -119 -55 -149 -114 -21 -39 -27 -67 -29 -137 -6
-138 32 -224 119 -268 46 -24 153 -27 204 -6 39 17 68 56 59 80 -6 16 -8 16
-28 -2 -35 -32 -67 -44 -117 -44 -62 0 -104 26 -132 82 -19 38 -22 61 -22 150
0 89 4 111 23 147 25 48 69 75 123 77 45 1 89 -34 89 -71 0 -29 30 -31 55 -3
15 16 17 26 9 47 -18 52 -110 80 -204 62z"/>
<path d="M3644 1363 c-13 -44 -32 -69 -61 -83 -41 -19 -43 -40 -3 -40 l30 0 0
-145 c0 -201 12 -220 126 -213 38 2 50 7 52 22 3 16 -1 18 -24 13 -36 -6 -71
10 -78 37 -3 11 -6 81 -6 154 l0 132 50 0 c43 0 50 3 50 19 0 17 -8 20 -47 23
l-48 3 -3 48 c-2 33 -7 47 -18 47 -8 0 -17 -8 -20 -17z"/>
<path d="M3274 1280 c-21 -8 -54 -46 -54 -62 0 -14 39 -48 55 -48 9 0 15 9 15
24 0 35 26 56 69 56 48 0 60 -14 68 -78 l5 -49 -68 -7 c-93 -9 -139 -30 -159
-73 -39 -82 14 -163 107 -163 44 0 54 4 85 35 34 34 38 33 45 -10 3 -17 11
-20 52 -20 56 0 73 19 32 35 -26 10 -26 10 -26 132 0 151 -10 192 -53 218 -34
21 -132 27 -173 10z m151 -249 c-1 -47 -5 -57 -33 -82 -61 -55 -122 -32 -122
45 0 53 23 77 83 87 70 11 72 10 72 -50z"/>
<path d="M3889 1270 c-55 -29 -79 -86 -79 -187 0 -141 53 -203 176 -203 113 0
167 64 168 199 1 141 -58 212 -176 211 -32 -1 -67 -8 -89 -20z m156 -44 c29
-30 38 -74 33 -170 -4 -84 -25 -125 -71 -137 -72 -19 -119 28 -125 126 -9 143
20 205 98 205 30 0 47 -6 65 -24z"/>
<path d="M4680 1272 c-54 -26 -83 -93 -83 -190 0 -92 25 -151 76 -183 26 -16
45 -19 104 -17 79 4 113 23 113 65 0 26 -12 30 -30 8 -7 -8 -29 -20 -49 -26
-30 -9 -44 -8 -74 5 -53 22 -70 66 -65 172 4 108 24 139 89 139 41 0 45 -2 55
-35 9 -26 17 -35 34 -35 29 0 45 25 37 57 -14 53 -135 77 -207 40z"/>
<path d="M4992 1273 c-43 -21 -53 -60 -22 -85 30 -24 40 -20 54 22 10 32 15
35 56 38 55 4 70 -13 70 -79 l0 -47 -67 -7 c-38 -4 -83 -14 -101 -22 -57 -27
-77 -93 -47 -158 19 -39 51 -55 111 -55 39 0 51 5 80 34 l34 34 6 -34 c6 -33
7 -34 55 -34 52 0 67 19 30 39 -17 9 -19 26 -23 153 -4 155 -11 179 -58 203
-38 20 -136 19 -178 -2z m158 -237 c0 -67 -27 -104 -80 -112 -50 -8 -75 13
-75 65 0 64 36 89 143 100 8 1 12 -16 12 -53z"/>
<path d="M5985 1280 c-32 -13 -75 -64 -85 -101 -18 -62 -12 -160 13 -209 31
-64 75 -90 149 -90 70 0 115 20 124 56 9 35 -1 40 -31 16 -63 -50 -145 -35
-176 32 -10 22 -19 53 -19 69 l0 27 126 0 127 0 -6 55 c-7 70 -33 115 -77 137
-36 19 -111 23 -145 8z m100 -36 c22 -9 45 -57 45 -94 l0 -30 -85 0 c-95 0
-97 2 -70 68 23 56 60 75 110 56z"/>
<path d="M6862 1282 c-44 -2 -62 -7 -59 -15 2 -7 12 -14 23 -15 37 -7 44 -31
44 -160 0 -178 21 -212 130 -212 41 0 55 5 84 30 l35 31 3 -28 c3 -27 5 -28
63 -28 46 0 60 3 60 15 0 8 -9 16 -20 18 -43 8 -45 17 -45 193 l0 169 -65 0
c-51 0 -65 -3 -65 -15 0 -8 8 -15 18 -15 36 0 42 -20 42 -137 0 -128 -11 -163
-58 -182 -16 -7 -41 -9 -56 -5 -50 12 -56 34 -56 201 0 83 -3 153 -7 155 -5 2
-36 2 -71 0z"/>
<path d="M7313 1282 c-85 -3 -107 -16 -62 -37 15 -7 44 -62 96 -185 l74 -174
-16 -43 c-20 -53 -65 -91 -116 -99 -29 -5 -39 -11 -39 -25 0 -21 12 -23 78
-10 47 9 85 39 110 86 8 17 48 120 88 230 56 153 79 205 100 221 15 12 24 26
21 30 -3 5 -39 8 -81 6 -56 -3 -76 -7 -76 -17 0 -8 10 -15 23 -17 35 -5 32
-37 -14 -173 l-43 -126 -12 38 c-6 21 -27 77 -47 126 -44 104 -46 124 -12 137
24 9 33 26 18 32 -5 2 -45 2 -90 0z"/>
<path d="M7744 1276 c-67 -30 -99 -107 -92 -218 9 -120 65 -178 173 -178 72 0
116 24 149 80 17 28 21 52 21 120 0 96 -19 149 -68 184 -35 26 -138 33 -183
12z m139 -46 c48 -38 60 -197 21 -271 -29 -57 -129 -57 -158 -1 -37 72 -31
212 11 262 31 37 86 41 126 10z"/>
</g>
</svg>
