<!DOCTYPE svg PUBLIC "-//W3C//DTD SVG 1.1//EN" "http://www.w3.org/Graphics/SVG/1.1/DTD/svg11.dtd">
<!-- Uploaded to: SVG Repo, www.svgrepo.com, Transformed by: SVG Repo Mixer Tools -->
<svg fill="#ffffff" width="800px" height="800px" viewBox="0 0 24 24" xmlns="http://www.w3.org/2000/svg" id="folder-edit" class="icon glyph">
<g id="SVGRepo_bgCarrier" stroke-width="0"/>
<g id="SVGRepo_tracerCarrier" stroke-linecap="round" stroke-linejoin="round"/>
<g id="SVGRepo_iconCarrier">
<path d="M21.41,16.05l-5.65,5.66a1,1,0,0,1-.71.29H12.22a1,1,0,0,1-1-1V18.17a1.05,1.05,0,0,1,.29-.71l5.66-5.65a2,2,0,0,1,2.83,0l1.41,1.41A2,2,0,0,1,21.41,16.05ZM20,5H12.83L10.41,2.59A2,2,0,0,0,9,2H4A2,2,0,0,0,2,4V17a2,2,0,0,0,2,2H9.22v-.83a3,3,0,0,1,.88-2.12l5.66-5.66a4,4,0,0,1,5.66,0L22,11V7A2,2,0,0,0,20,5Z"/>
</g>
</svg>