<?xml version="1.0" encoding="UTF-8"?>
<svg version="1.1" xmlns="http://www.w3.org/2000/svg" width="350" height="350">
<path d="M0 0 C0.82566467 0.00370605 1.65132935 0.00741211 2.50201416 0.01123047 C49.72083388 0.31153083 92.03533951 19.43984005 125.12353516 52.83105469 C144.44317105 72.85090077 157.80414934 97.38495257 165.625 124 C165.85550049 124.77714355 166.08600098 125.55428711 166.32348633 126.35498047 C170.41558459 141.12139896 171.87407429 155.85106711 171.75 171.125 C171.74629395 171.95066467 171.74258789 172.77632935 171.73876953 173.62701416 C171.43745352 221.00553235 152.20552329 263.01690999 118.88598633 296.29907227 C113.06159976 301.95309049 106.86718092 306.83085193 100.19140625 311.43359375 C97.33897924 313.29342729 97.33897924 313.29342729 95.3125 315.4375 C56.5604454 339.55358548 8.65918808 349.86169202 -36.375 339.828125 C-66.43017154 332.28053694 -95.82222791 318.94586833 -117.6875 296.4375 C-118.83412109 295.29087891 -118.83412109 295.29087891 -120.00390625 294.12109375 C-122.23177083 291.89322917 -124.45963542 289.66536458 -126.6875 287.4375 C-127.31398437 286.85097656 -127.94046875 286.26445312 -128.5859375 285.66015625 C-131.60252375 282.46975183 -134.14474094 278.96658712 -136.75 275.4375 C-137.54374023 274.37015625 -137.54374023 274.37015625 -138.35351562 273.28125 C-139.36772439 271.91709467 -140.38002893 270.5515209 -141.39013672 269.18432617 C-142.37490363 267.85839331 -143.37690309 266.54523808 -144.38671875 265.23828125 C-169.06449664 231.07475089 -175.35402655 183.66185897 -169.65527344 142.80712891 C-165.01039527 115.55362141 -153.67521213 89.90647267 -136.91308594 68.05639648 C-134.80673254 65.30696188 -132.80898555 62.64344694 -131.046875 59.65625 C-129.62140358 57.32961849 -128.23367264 55.9624711 -126.125 54.25 C-122.93634242 51.57452601 -120.05447852 48.7668543 -117.1875 45.75 C-98.07454509 26.54977133 -72.91367938 13.70302183 -47.125 6.125 C-46.34785645 5.89449951 -45.57071289 5.66399902 -44.77001953 5.42651367 C-30.00360104 1.33441541 -15.27393289 -0.12407429 0 0 Z " fill="#00492B" transform="translate(174.6875,3.5625)"/>
<path d="M0 0 C3.38245688 4.19595167 4.776092 8.49186815 6.4375 13.5625 C6.74316895 14.48764404 7.04883789 15.41278809 7.36376953 16.3659668 C15.10040439 40.45121401 16.92832209 63.18237802 12 88 C26.59735806 79.45899262 33.73458163 65.65368198 41 51 C41.33 51 41.66 51 42 51 C40.99947496 86.36856002 29.90669024 115.46081834 4 140 C2.63424299 141.19811896 1.26024808 142.38697075 -0.125 143.5625 C-19.25221546 160.20666924 -31.60249841 185.98791685 -35 211 C-35.55043628 220.45268456 -34.91466233 229.24716015 -32.97949219 238.50317383 C-31.90696015 243.72088045 -31.90696015 243.72088045 -33 247 C-33.61746094 245.97261719 -34.23492187 244.94523438 -34.87109375 243.88671875 C-38.81283915 237.40942562 -42.70087201 231.10458074 -47.625 225.3125 C-65.56825968 204.16735122 -70.41020322 180.99407512 -69 154 C-68.34560217 147.60785914 -67.23548554 141.30244705 -66 135 C-65.67 135 -65.34 135 -65 135 C-64.92072266 135.69222656 -64.84144531 136.38445312 -64.75976562 137.09765625 C-62.59784569 155.22911737 -59.52035778 173.60874483 -51 190 C-51.0721875 188.6903125 -51.144375 187.380625 -51.21875 186.03125 C-53.01038036 151.76155432 -53.11098575 123.63641258 -32.734375 94.79296875 C-22.56670265 80.37691582 -14.9594745 65.62184691 -9 49 C-8.74202637 48.28231445 -8.48405273 47.56462891 -8.21826172 46.82519531 C-3.91525749 34.50679104 -2.39438918 21.92454526 -1 9 C-0.80772537 7.27078505 -0.61504953 5.54161465 -0.421875 3.8125 C-0.28265625 2.554375 -0.1434375 1.29625 0 0 Z " fill="#F98D00" transform="translate(204,47)"/>
<path d="M0 0 C0.33 0 0.66 0 1 0 C2.05348888 28.6392902 -5.59514731 58.27814998 -25 80 C-36.75097849 92.61343563 -50.09971368 97.88589253 -66.14404297 103.00268555 C-87.0592754 109.78747974 -103.40461214 121.8820123 -114.58984375 141.16796875 C-116.67751674 145.36066381 -118.37634034 149.69427971 -119.99682617 154.08691406 C-121.7994493 158.89972465 -121.7994493 158.89972465 -124 160 C-127.43698515 126.45469833 -127.43698515 126.45469833 -120 113 C-119.25556641 111.57880859 -119.25556641 111.57880859 -118.49609375 110.12890625 C-110.84343284 96.83356042 -98.18958508 89.10787036 -85.59130859 81.05639648 C-84.02872919 80.09473842 -84.02872919 80.09473842 -83 79 C-94.7352877 78.19580516 -103.76213389 78.87366333 -113.1875 86.8515625 C-114.88045886 88.50925138 -116.44650144 90.21282756 -118 92 C-118.99306383 93.00688839 -119.99105866 94.00902201 -121 95 C-119.50937061 79.49745432 -109.39568599 63.33523767 -97.9375 53.25 C-83.24511828 41.89033004 -65.26083323 38.00158047 -47.33203125 34.9296875 C-45.55445373 34.62113543 -43.7771069 34.31125118 -42 34 C-40.67174194 33.76990234 -40.67174194 33.76990234 -39.31665039 33.53515625 C-25.83108791 31.0485464 -16.06642515 24.71682802 -8.3125 13.5625 C-5.32712064 9.15866 -2.50984365 4.69231639 0 0 Z " fill="#FA8D00" transform="translate(303,144)"/>
<path d="M0 0 C20.88066795 3.51338199 41.88440491 16.36283471 54.9375 32.875 C65.19917154 47.47814796 70.21984316 64.77187473 70.09765625 82.55859375 C70.0962413 83.34774673 70.09482635 84.13689972 70.09336853 84.94996643 C70.08781555 87.44585115 70.07527208 89.94164285 70.0625 92.4375 C70.05747891 94.13997265 70.05291707 95.84244673 70.04882812 97.54492188 C70.03786158 101.69664988 70.02062991 105.84830922 70 110 C67.34294901 106.85072113 65.31646 103.93751796 63.66796875 100.1640625 C63.26126953 99.26429688 62.85457031 98.36453125 62.43554688 97.4375 C61.60833436 95.57335912 60.78792968 93.70618129 59.97460938 91.8359375 C57.0545082 85.41813273 53.54139054 79.27069527 47 76 C47.14785515 106.25983756 47.14785515 106.25983756 60.87890625 132.1015625 C64.8497422 135.65557037 69.02684986 137.30299112 74.0078125 139.0625 C93.9517923 146.22913104 106.80373413 161.23632448 116.84765625 179.328125 C117.22792969 180.20984375 117.60820312 181.0915625 118 182 C117.67 182.66 117.34 183.32 117 184 C116.154375 183.05125 115.30875 182.1025 114.4375 181.125 C100.63118965 167.40202754 82.29861677 160.48993686 64.14404297 154.68652344 C50.22334757 150.22911106 35.9508174 145.42632485 28.5 131.875 C26.02572803 126.58461585 24.30629821 121.0438162 22.5 115.5 C16.4526561 96.7158774 16.4526561 96.7158774 2.1484375 83.8828125 C-1.51231205 82.11476309 -5.23246182 80.52565674 -9 79 C-4.25975954 75.8398397 0.3522873 75.21955827 6 76 C17.6746988 79.3373494 17.6746988 79.3373494 23 82 C27.28780269 59.98672725 26.34384897 35.43600014 13.78076172 16.12597656 C9.68919542 10.27554995 5.11140826 4.97498277 0 0 Z " fill="#F88C00" transform="translate(55,121)"/>
<path d="M0 0 C10.69660519 8.45778085 20.40281029 21.29567984 23 35 C24.78240513 52.502634 15.63141136 68.77790175 5 82 C2.09034815 85.41907039 -0.83826272 88.81058887 -4 92 C-4.33 92 -4.66 92 -5 92 C-6.01077833 76.10831853 -1.4664654 61.54635591 3.73046875 46.6953125 C8.31496792 33.35089337 7.35022565 17.96551033 2 5 C1.62617188 4.0615625 1.25234375 3.123125 0.8671875 2.15625 C0.58101562 1.4446875 0.29484375 0.733125 0 0 Z " fill="#F48B00" transform="translate(147,71)"/>
<path d="M0 0 C0.33 0 0.66 0 1 0 C1 5.28 1 10.56 1 16 C0.67 16 0.34 16 0 16 C-0.33 12.7 -0.66 9.4 -1 6 C-1.99 6.495 -1.99 6.495 -3 7 C-1.125 2.25 -1.125 2.25 0 0 Z " fill="#C37F02" transform="translate(303,144)"/>
<path d="M0 0 C0.33 0 0.66 0 1 0 C1.98248524 4.0527516 2.08159574 7.83861737 2 12 C0.48046875 10.79296875 0.48046875 10.79296875 -1 9 C-1.07421875 6.73828125 -1.07421875 6.73828125 -0.6875 4.3125 C-0.56761719 3.50425781 -0.44773438 2.69601563 -0.32421875 1.86328125 C-0.21722656 1.24839844 -0.11023438 0.63351563 0 0 Z " fill="#BE7D02" transform="translate(138,182)"/>
</svg>
